<svg xmlns="http://www.w3.org/2000/svg" width="300.266" height="300.266" viewBox="0 0 300.266 300.266">
  <g id="Grupo_11019" data-name="Grupo 11019" transform="translate(-595.766 -1666.019)">
    <g id="Audio" transform="translate(-15997.183 -446.857)">
      <path id="Caminho_18887" data-name="Caminho 18887" d="M1018.834.01h275.244a12.51,12.51,0,0,1,12.511,12.511V287.765a12.51,12.51,0,0,1-12.511,12.511H1018.834a12.51,12.51,0,0,1-12.511-12.511V12.521A12.51,12.51,0,0,1,1018.834.01" transform="translate(15586.626 2112.867)" fill="#fafafa"/>
      <path id="Caminho_18888" data-name="Caminho 18888" d="M1159.532,104.641l-.184-.144.068-.222a49.7,49.7,0,0,0,2.376-14.813,50.624,50.624,0,0,0-16.164-36.869,55.122,55.122,0,0,0-76.107,0,50.618,50.618,0,0,0-16.148,36.867,49.683,49.683,0,0,0,2.378,14.813l.068.222-.184.144a5.912,5.912,0,0,0-2.108,6.222l5.517,20.262a5.929,5.929,0,0,0,2.8,3.613,6.094,6.094,0,0,0,4.6.6l6.764-1.786.138.2a6.122,6.122,0,0,0,6.552,2.384l8.233-2.174a6.007,6.007,0,0,0,3.669-2.776,5.837,5.837,0,0,0,.6-4.516L1084.686,98.3a5.928,5.928,0,0,0-2.82-3.6,6.082,6.082,0,0,0-4.588-.6l-8.233,2.17a28.848,28.848,0,0,0-5.026,1.685l-.437.238-.114-.432a37.007,37.007,0,0,1-.8-5.855l-.014-.262.254-.078c2.286-.709,6.758-3.277,6.989-5.6,1.773-17.91,18.676-32.483,37.677-32.483s35.9,14.571,37.677,32.483c.232,2.33,5.4,5.349,7.681,6.057l.256.078-.014.262a25.354,25.354,0,0,1-.943,6.234l-.4-.182a38.006,38.006,0,0,0-5.721-2.134l-8.232-2.17a6.157,6.157,0,0,0-1.565-.2,6.049,6.049,0,0,0-5.845,4.4l-7.721,28.371a5.829,5.829,0,0,0,.6,4.516,5.993,5.993,0,0,0,3.669,2.776l8.235,2.174a6.12,6.12,0,0,0,6.55-2.384l.136-.2,6.766,1.788a6.086,6.086,0,0,0,4.6-.6,5.931,5.931,0,0,0,2.8-3.6l5.519-20.268A5.913,5.913,0,0,0,1159.532,104.641Z" transform="translate(15633.711 2150.273)" fill="none" stroke="#303030" stroke-width="2"/>
      <line id="Linha_1566" data-name="Linha 1566" x2="11.288" y2="38.742" transform="translate(16709.717 2245.375)" fill="none" stroke="#303030" stroke-width="2"/>
      <line id="Linha_1567" data-name="Linha 1567" x2="10.247" y2="35.948" transform="translate(16697.355 2248.668)" fill="none" stroke="#303030" stroke-width="2"/>
      <line id="Linha_1568" data-name="Linha 1568" x2="8.634" y2="31.246" transform="translate(16689.477 2254.615)" fill="none" stroke="#303030" stroke-width="2"/>
      <line id="Linha_1569" data-name="Linha 1569" y1="35.914" x2="10.361" transform="translate(16775.527 2248.681)" fill="none" stroke="#303030" stroke-width="2"/>
      <line id="Linha_1570" data-name="Linha 1570" y1="32.188" x2="9.024" transform="translate(16784.332 2253.788)" fill="none" stroke="#303030" stroke-width="2"/>
      <line id="Linha_1571" data-name="Linha 1571" x1="10.958" y2="38.828" transform="translate(16762.287 2245.326)" fill="none" stroke="#303030" stroke-width="2"/>
    </g>
    <text id="Áudio" transform="translate(744.646 1918.143)" fill="#303030" font-size="25" font-family="OpenSans-Bold, Open Sans" font-weight="700"><tspan x="-36.304" y="0">Áudio</tspan></text>
  </g>
</svg>
