<svg xmlns="http://www.w3.org/2000/svg" width="300.266" height="300.266" viewBox="0 0 300.266 300.266">
  <g id="Cama-mesa-banho" transform="translate(1418.661 -1666.019)">
    <g id="Grupo_10994" data-name="Grupo 10994" transform="translate(-15997.183 -446.857)">
      <path id="Caminho_18889" data-name="Caminho 18889" d="M12.511.01H287.755a12.511,12.511,0,0,1,12.511,12.511V287.765a12.511,12.511,0,0,1-12.511,12.511H12.511A12.511,12.511,0,0,1,0,287.765V12.521A12.511,12.511,0,0,1,12.511.01" transform="translate(14578.521 2112.867)" fill="#fafafa"/>
    </g>
    <text id="Cama_Mesa_e_Banho" data-name="Cama, Mesa e Banho" transform="translate(-1397.207 1918.143)" fill="#303030" font-size="25" font-family="OpenSans-Bold, Open Sans" font-weight="700"><tspan x="0" y="0">Cama, Mesa e Banho</tspan></text>
    <g id="Grupo_11028" data-name="Grupo 11028" transform="translate(-1342.708 1714.672)">
      <path id="Caminho_18903" data-name="Caminho 18903" d="M108.257,20.769q-.027-.991-.061-1.946a13.571,13.571,0,0,1,1.436-7.036,7.252,7.252,0,0,0-.093-7.093,4.414,4.414,0,0,0-6.3-1.622h0a7.864,7.864,0,0,1-4.764,1.249c-15.611-1.063-48.8-1.077-64.393-.01a7.812,7.812,0,0,1-4.73-1.24h0A4.284,4.284,0,0,0,23.519,4a7.2,7.2,0,0,0-.571,7.768,13.631,13.631,0,0,1,1.43,7.035c-.292,8.649-.281,19.878.018,28.538a13.556,13.556,0,0,1-1.439,7.044,7.255,7.255,0,0,0,.089,7.1,4.414,4.414,0,0,0,6.305,1.623h0a7.809,7.809,0,0,1,4.715-1.24c2.059.138,2.044.257,4.637.359" fill="none" stroke="#303030" stroke-linecap="round" stroke-linejoin="round" stroke-width="2" fill-rule="evenodd"/>
      <path id="Caminho_18904" data-name="Caminho 18904" d="M124.614,64.477c.3-8.658.3-19.887,0-28.537a13.563,13.563,0,0,1,1.436-7.037,7.252,7.252,0,0,0-.093-7.093,4.413,4.413,0,0,0-6.3-1.621h0a7.879,7.879,0,0,1-4.764,1.249c-15.611-1.064-48.8-1.078-64.393-.011a7.8,7.8,0,0,1-4.73-1.239h0a4.285,4.285,0,0,0-5.83.932,7.2,7.2,0,0,0-.572,7.768,13.631,13.631,0,0,1,1.431,7.035c-.293,8.649-.281,19.878.018,28.539a13.571,13.571,0,0,1-1.439,7.044,7.248,7.248,0,0,0,.089,7.1,4.415,4.415,0,0,0,6.3,1.624h0a7.806,7.806,0,0,1,4.716-1.241C66.1,80.027,99.429,80.055,115,79a7.694,7.694,0,0,1,4.653,1.222h0a4.285,4.285,0,0,0,5.833-.935,7.2,7.2,0,0,0,.563-7.776A13.586,13.586,0,0,1,124.614,64.477Z" fill="none" stroke="#303030" stroke-linecap="round" stroke-linejoin="round" stroke-width="2" fill-rule="evenodd"/>
      <path id="Caminho_18905" data-name="Caminho 18905" d="M136.758,117.012a9.83,9.83,0,0,0,0-19.66H22.074a19.367,19.367,0,0,0-10.224,2.883,19.632,19.632,0,0,0,0,33.553,19.368,19.368,0,0,0,10.224,2.884H136.758a9.83,9.83,0,1,0,0-19.66Z" fill="none" stroke="#303030" stroke-linecap="round" stroke-linejoin="round" stroke-width="2" fill-rule="evenodd"/>
      <path id="Caminho_18906" data-name="Caminho 18906" d="M140.034,117.012H28.627" fill="none" stroke="#303030" stroke-linecap="round" stroke-linejoin="round" stroke-width="2" fill-rule="evenodd"/>
      <path id="Caminho_18907" data-name="Caminho 18907" d="M125.761,51.478a13.106,13.106,0,0,1,12.907,10.829l7.92,44.875" fill="none" stroke="#303030" stroke-linecap="round" stroke-linejoin="round" stroke-width="2" fill-rule="evenodd"/>
      <path id="Caminho_18908" data-name="Caminho 18908" d="M22.074,51.559a13.243,13.243,0,0,1,1.457-.081" fill="none" stroke="#303030" stroke-linecap="round" stroke-linejoin="round" stroke-width="2" fill-rule="evenodd"/>
      <path id="Caminho_18909" data-name="Caminho 18909" d="M2.414,117.012l8.155-54.371a13.109,13.109,0,0,1,11.5-11.082" fill="none" stroke="#303030" stroke-linecap="round" stroke-linejoin="round" stroke-width="2" fill-rule="evenodd"/>
    </g>
  </g>
</svg>
