<svg xmlns="http://www.w3.org/2000/svg" width="300.304" height="300.306" viewBox="0 0 300.304 300.306">
  <g id="Grupo_11014" data-name="Grupo 11014" transform="translate(1086.851 -1666.001)">
    <g id="Informatica" transform="translate(-15997.183 -446.857)">
      <path id="Caminho_18884" data-name="Caminho 18884" d="M178.309,0l275.244.04a12.509,12.509,0,0,1,12.509,12.511L466.024,287.8a12.515,12.515,0,0,1-12.513,12.511l-275.243-.04a12.51,12.51,0,0,1-12.509-12.515L165.8,12.51A12.512,12.512,0,0,1,178.309,0" transform="translate(14744.573 2112.858)" fill="#fafafa"/>
      <path id="Caminho_18885" data-name="Caminho 18885" d="M345.929,133.792v-.062a1.663,1.663,0,0,0-.038-.244v-.024a1.544,1.544,0,0,0-.062-.214.267.267,0,0,0-.02-.056,1.515,1.515,0,0,0-.078-.186l-.014-.034L334.661,110.82l.01-72.873a4.04,4.04,0,0,0-4-4.064l-110.6-.016a4.038,4.038,0,0,0-4,4.062l-.01,72.865-11.062,22.15-.016.032c-.026.062-.054.122-.078.184a.3.3,0,0,1-.018.056,1.913,1.913,0,0,0-.062.216.041.041,0,0,1,0,.022,2.465,2.465,0,0,0-.036.244v5.519a4.8,4.8,0,0,0,4.754,4.826l131.67.018a4.8,4.8,0,0,0,4.756-4.824v-5.327A.208.208,0,0,1,345.929,133.792ZM224.185,42.071l102.335.014-.008,63.134-102.335-.014Z" transform="translate(14785.127 2146.785)" fill="none" stroke="#303030" stroke-width="2"/>
      <line id="Linha_1564" data-name="Linha 1564" x2="141.125" y2="0.02" transform="translate(14989.881 2281.016)" fill="none" stroke="#303030" stroke-width="2"/>
      <path id="Caminho_18886" data-name="Caminho 18886" d="M216.242,73.207,211.5,83.137l114.163.016L320.9,73.225Z" transform="translate(14791.857 2186.193)" fill="none" stroke="#303030" stroke-width="2"/>
      <line id="Linha_1565" data-name="Linha 1565" x2="26.023" y2="0.004" transform="translate(15047.934 2275.019)" fill="none" stroke="#303030" stroke-width="2"/>
    </g>
    <text id="Informática" transform="translate(-1011.453 1918.143)" fill="#303030" font-size="25" font-family="OpenSans-Bold, Open Sans" font-weight="700"><tspan x="0" y="0">Informática</tspan></text>
  </g>
</svg>
