<svg xmlns="http://www.w3.org/2000/svg" width="300.266" height="300.266" viewBox="0 0 300.266 300.266">
  <g id="Grupo_11021" data-name="Grupo 11021" transform="translate(-1279.535 -1666.019)">
    <g id="Kids" transform="translate(-15997.183 -446.857)">
      <path id="Caminho_18865" data-name="Caminho 18865" d="M1360.415.01h275.244a12.51,12.51,0,0,1,12.511,12.511V287.765a12.511,12.511,0,0,1-12.511,12.511H1360.415a12.51,12.51,0,0,1-12.511-12.511V12.521A12.51,12.51,0,0,1,1360.415.01" transform="translate(15928.813 2112.867)" fill="#fafafa"/>
      <path id="Caminho_18866" data-name="Caminho 18866" d="M1501.906,136.622V64.368a4.8,4.8,0,0,0-2.8-4.336l-1.617-.745,1.477-.995a6.69,6.69,0,1,0-7.443,0l1.477.995-1.617.745a4.791,4.791,0,0,0-2.743,3.843l-.092.9h-79l-.092-.9a4.79,4.79,0,0,0-2.745-3.843l-1.622-.745,1.481-.995a6.693,6.693,0,1,0-7.441,0l1.479.995-1.621.745a4.8,4.8,0,0,0-2.8,4.336v72.254h13.318V122.59h79.072v14.032Zm-10.541-83.886a3.882,3.882,0,1,1,3.881,3.883,3.886,3.886,0,0,1-3.881-3.883m-81.849,14.847h79.072v40.256h-14.767V73a1.4,1.4,0,1,0-2.807,0v34.839H1450.6V73a1.405,1.405,0,0,0-2.81,0v34.839h-20.406V73a1.4,1.4,0,0,0-2.808,0v34.839h-15.063Zm-10.542-14.847a3.882,3.882,0,1,1,3.881,3.883,3.886,3.886,0,0,1-3.881-3.883m7.733,67.045v14.032H1399V64.368a1.977,1.977,0,0,1,1.975-1.974h3.754a1.975,1.975,0,0,1,1.974,1.974v48.243a1.4,1.4,0,0,0,2.809,0v-1.964h79.072v1.964a1.405,1.405,0,0,0,2.811,0V64.368a1.975,1.975,0,0,1,1.972-1.974h3.753a1.975,1.975,0,0,1,1.974,1.974v69.445h-7.7V119.781Z" transform="translate(15977.158 2158.984)" fill="#303030"/>
      <path id="Caminho_18867" data-name="Caminho 18867" d="M1409.579,43.792a6.692,6.692,0,1,0,8.781-6.318l-.686-.228V34.207a1.4,1.4,0,0,0-2.809,0v3.039l-.684.228a6.672,6.672,0,0,0-4.6,6.318m6.692-3.881a3.882,3.882,0,1,1-3.881,3.881,3.886,3.886,0,0,1,3.881-3.881" transform="translate(15990.598 2145.719)" fill="#303030"/>
      <path id="Caminho_18868" data-name="Caminho 18868" d="M1455.292,31.943a1.4,1.4,0,0,0,0-2.808H1412.63a1.4,1.4,0,0,0,0,2.808Z" transform="translate(15992.248 2142.043)" fill="#303030"/>
      <path id="Caminho_18869" data-name="Caminho 18869" d="M1418.485,49.545a8.207,8.207,0,1,0,10.347-7.881l-.737-.2V34.207a1.4,1.4,0,0,0-2.809,0v7.254l-.737.2a8.208,8.208,0,0,0-6.065,7.881m8.207-5.4a5.4,5.4,0,1,1-5.4,5.4,5.4,5.4,0,0,1,5.4-5.4" transform="translate(15999.518 2145.719)" fill="#303030"/>
      <path id="Caminho_18870" data-name="Caminho 18870" d="M1428.9,43.792a6.692,6.692,0,1,0,8.782-6.318l-.687-.228V34.207a1.4,1.4,0,0,0-2.808,0v3.039l-.687.228a6.671,6.671,0,0,0-4.6,6.318m6.692-3.881a3.882,3.882,0,1,1-3.882,3.881,3.886,3.886,0,0,1,3.882-3.881" transform="translate(16009.956 2145.719)" fill="#303030"/>
    </g>
    <text id="Kids-2" data-name="Kids" transform="translate(1428.414 1918.143)" fill="#303030" font-size="25" font-family="OpenSans-Bold, Open Sans" font-weight="700"><tspan x="-26.239" y="0">Kids</tspan></text>
  </g>
</svg>
