<svg xmlns="http://www.w3.org/2000/svg" width="300.266" height="300.266" viewBox="0 0 300.266 300.266">
  <g id="Grupo_11016" data-name="Grupo 11016" transform="translate(416.475 -1666.019)">
    <g id="Smartphones" transform="translate(-15997.183 -446.857)">
      <path id="Caminho_18876" data-name="Caminho 18876" d="M513.161.01H788.4a12.511,12.511,0,0,1,12.511,12.511V287.765A12.511,12.511,0,0,1,788.4,300.276H513.161a12.511,12.511,0,0,1-12.511-12.511V12.521A12.511,12.511,0,0,1,513.161.01" transform="translate(15080.058 2112.867)" fill="#fafafa"/>
      <path id="Caminho_18877" data-name="Caminho 18877" d="M567.363,146.109H614a7.074,7.074,0,0,0,6.71-7.371V41.381A7.074,7.074,0,0,0,614,34.01H567.363a7.073,7.073,0,0,0-6.71,7.371v97.356a7.073,7.073,0,0,0,6.71,7.37Z" transform="translate(15140.156 2145.927)" fill="none" stroke="#303030" stroke-width="2"/>
      <line id="Linha_1557" data-name="Linha 1557" x2="58.051" transform="translate(15701.811 2276.023)" fill="none" stroke="#303030" stroke-width="2"/>
      <line id="Linha_1558" data-name="Linha 1558" x2="58.051" transform="translate(15701.811 2195.951)" fill="none" stroke="#303030" stroke-width="2"/>
      <line id="Linha_1559" data-name="Linha 1559" x2="16.014" transform="translate(15722.828 2284.03)" fill="none" stroke="#303030" stroke-width="2"/>
    </g>
    <text id="Smartphones-2" data-name="Smartphones" transform="translate(-266.342 1918.143)" fill="#303030" font-size="25" font-family="OpenSans-Bold, Open Sans" font-weight="700"><tspan x="-83.49" y="0">Smartphones</tspan></text>
  </g>
</svg>
