<svg xmlns="http://www.w3.org/2000/svg" width="300.266" height="300.266" viewBox="0 0 300.266 300.266">
  <g id="Grupo_11017" data-name="Grupo 11017" transform="translate(77.943 -1666.019)">
    <g id="Smartwatches" transform="translate(-15997.183 -446.857)">
      <path id="Caminho_18871" data-name="Caminho 18871" d="M682.277.01H957.521a12.51,12.51,0,0,1,12.511,12.511V287.765a12.51,12.51,0,0,1-12.511,12.511H682.277a12.511,12.511,0,0,1-12.511-12.511V12.521A12.511,12.511,0,0,1,682.277.01" transform="translate(15249.474 2112.867)" fill="#fafafa"/>
      <path id="Caminho_18872" data-name="Caminho 18872" d="M759.212,72.019h6.18a1.826,1.826,0,0,0,1.83-1.83V59.8a1.838,1.838,0,0,0-1.83-1.83h-6.18" transform="translate(15339.078 2170.935)" fill="none" stroke="#303030" stroke-width="2"/>
      <path id="Caminho_18873" data-name="Caminho 18873" d="M774.535,77.93V95.259a7.32,7.32,0,0,1-7.32,7.321h-27.7a7.32,7.32,0,0,1-7.32-7.321V77.93" transform="translate(15312.008 2190.925)" fill="none" stroke="#303030" stroke-width="2"/>
      <path id="Caminho_18874" data-name="Caminho 18874" d="M732.191,56.506V40.912a7.319,7.319,0,0,1,7.32-7.318h27.7a7.319,7.319,0,0,1,7.32,7.318V56.506" transform="translate(15312.01 2146.51)" fill="none" stroke="#303030" stroke-width="2"/>
      <path id="Caminho_18875" data-name="Caminho 18875" d="M792.163,52.356V103.57a7.32,7.32,0,0,1-7.32,7.32H733.637a7.319,7.319,0,0,1-7.318-7.32V52.356a7.319,7.319,0,0,1,7.318-7.32h51.215A7.325,7.325,0,0,1,792.163,52.356Z" transform="translate(15306.127 2157.973)" fill="none" stroke="#303030" stroke-width="2"/>
      <rect id="Retângulo_4705" data-name="Retângulo 4705" width="51.213" height="51.213" transform="translate(16039.765 2210.329)" fill="none" stroke="#303030" stroke-width="2"/>
    </g>
    <text id="Smartwatches-2" data-name="Smartwatches" transform="translate(72.189 1918.143)" fill="#303030" font-size="25" font-family="OpenSans-Bold, Open Sans" font-weight="700"><tspan x="-89.728" y="0">Smartwatches</tspan></text>
    <text id="Smartwatches-3" data-name="Smartwatches" transform="translate(72.189 1918.143)" fill="#303030" font-size="25" font-family="OpenSans-Bold, Open Sans" font-weight="700"><tspan x="-89.728" y="0">Smartwatches</tspan></text>
  </g>
</svg>
