<svg xmlns="http://www.w3.org/2000/svg" width="300.266" height="300.266" viewBox="0 0 300.266 300.266">
  <g id="Grupo_11023" data-name="Grupo 11023" transform="translate(-1965.537 -1666.019)">
    <g id="Sono" transform="translate(-15997.183 -446.857)">
      <g id="Grupo_10997" data-name="Grupo 10997">
        <path id="Caminho_18856" data-name="Caminho 18856" d="M1703.112.01h275.243a12.511,12.511,0,0,1,12.511,12.511V287.765a12.511,12.511,0,0,1-12.511,12.511H1703.112a12.511,12.511,0,0,1-12.511-12.511V12.521A12.511,12.511,0,0,1,1703.112.01" transform="translate(16272.118 2112.867)" fill="#fafafa"/>
        <path id="Caminho_18857" data-name="Caminho 18857" d="M1781.577,72.1V69.66c0-6.856-5.01-12.187-19.5-12.187s-19.5,5.331-19.5,12.187V72.1" transform="translate(16324.184 2170.432)" fill="none" stroke="#303030" stroke-width="2"/>
        <path id="Caminho_18858" data-name="Caminho 18858" d="M1766.93,72.1V69.66c0-6.856,5.01-12.187,19.5-12.187s19.5,5.331,19.5,12.187V72.1" transform="translate(16348.582 2170.432)" fill="none" stroke="#303030" stroke-width="2"/>
        <path id="Caminho_18859" data-name="Caminho 18859" d="M1791.332,100.121H1827.9l7.313,12.189h9.751V68.433H1737.7v43.877h9.75l7.313-12.189Z" transform="translate(16319.305 2181.41)" fill="none" stroke="#303030" stroke-width="2"/>
        <path id="Caminho_18860" data-name="Caminho 18860" d="M1844.96,84.3V52.609c-10.307-3.809-30.455-7.314-53.627-7.314s-43.32,3.505-53.628,7.314V84.3" transform="translate(16319.305 2158.232)" fill="none" stroke="#303030" stroke-width="2"/>
      </g>
    </g>
    <text id="Sono-2" data-name="Sono" transform="translate(2115.669 1918.143)" fill="#303030" font-size="25" font-family="OpenSans-Bold, Open Sans" font-weight="700"><tspan x="-30.579" y="0">Sono</tspan></text>
  </g>
</svg>
