<svg xmlns="http://www.w3.org/2000/svg" width="300.266" height="300.266" viewBox="0 0 300.266 300.266">
  <g id="Grupo_11022" data-name="Grupo 11022" transform="translate(-1621.42 -1666.019)">
    <g id="Utensilios-Domesticos" transform="translate(-15997.183 -446.857)">
      <path id="Caminho_18861" data-name="Caminho 18861" d="M1531.206.01H1806.45a12.512,12.512,0,0,1,12.511,12.511V287.765a12.512,12.512,0,0,1-12.511,12.511H1531.206a12.511,12.511,0,0,1-12.511-12.511V12.521A12.511,12.511,0,0,1,1531.206.01" transform="translate(16099.907 2112.867)" fill="#fafafa"/>
      <path id="Caminho_18862" data-name="Caminho 18862" d="M1624.316,46.758a5.539,5.539,0,0,1-3.6-3.8c-1.543-5.693-7.833-9.955-15.355-9.955-7.555,0-13.866,4.3-15.376,10.031a5.5,5.5,0,0,1-3.5,3.763L1566.112,54V149.2h80.013V54Z" transform="translate(16147.406 2145.921)" fill="none" stroke="#303030" stroke-width="2"/>
      <path id="Caminho_18863" data-name="Caminho 18863" d="M1623.053,108.746l2.25,31.788c0,4.788-2.939,8.672-6.566,8.672s-6.564-3.883-6.564-8.672V33.009s13.82-.595,16.124,21.171,1.611,47.984,1.611,47.984h-12.155" transform="translate(16193.55 2145.922)" fill="none" stroke="#303030" stroke-width="2"/>
      <path id="Caminho_18864" data-name="Caminho 18864" d="M1600.124,50.166a9.348,9.348,0,1,1-9.348-9.348A9.349,9.349,0,0,1,1600.124,50.166Z" transform="translate(16162.749 2153.747)" fill="none" stroke="#303030" stroke-width="2"/>
    </g>
    <text id="Utensílios_Domésticos" data-name="Utensílios Domésticos" transform="translate(1771.552 1918.143)" fill="#303030" font-size="25" font-family="OpenSans-Bold, Open Sans" font-weight="700"><tspan x="-137.817" y="0">Utensílios Domésticos</tspan></text>
  </g>
</svg>
